<svg version="1" xmlns="http://www.w3.org/2000/svg" width="933.333" height="933.333" viewBox="0 0 700.000000 700.000000"><path d="M337.8 105.5c-.2.1-2.3.5-4.8.8-2.5.4-5.6.9-7 1.2-1.4.3-3.6.7-5 1-9.4 1.7-29.1 10.3-39.5 17.3-28.5 19-49.1 52.6-53.1 86.8-1.2 10.2-.5 34.8 1.1 37.3.2.4.6 2.2.9 4.1 1.7 10.9 9.8 29.5 18.4 42.5 5.9 8.8 22.7 25.9 30.9 31.4 8.8 5.8 21.6 12.3 29.8 15 3.9 1.3 7.7 2.6 8.5 2.9.8.3 2.2.6 3 .8.8.1 4.2.8 7.5 1.5 6.7 1.5 31 1.8 39.5.6 32.8-4.7 65.1-25.1 83.5-52.7 46.1-69.4 12.2-163.1-67.5-186.2-7.3-2.1-8.5-2.3-19-3.8-6.4-.9-26.3-1.3-27.2-.5zM90.9 176.6c-8.3 1.5-15.6 4.6-23.9 9.9-32.3 20.8-41.7 64.1-20.7 96.3 28.3 43.3 91.4 42.5 118.3-1.6 13.8-22.7 13.8-49.2.1-72.4-15-25.1-44.3-37.9-73.8-32.2zM585.9 175.4c-.2.2-2.4.7-4.8 1.1-16.7 2.5-35.4 15.6-45.6 32-14.3 23-13.6 54.3 1.7 76 20.4 28.9 58.2 38.5 89.3 22.8 3.9-1.9 7.2-3.9 7.5-4.3.3-.3 1.3-1.1 2.3-1.6 6.9-3.8 19-19.3 23.5-30.1 6-14.3 6.6-33.5 1.4-48.4-7.7-22.3-25.6-39.3-48-45.5-5.1-1.5-26.3-3-27.3-2zM53.3 352.1c-26 6.6-46.3 27.7-51.9 53.8C.4 410.8.1 419.1.3 438l.2 25.5 3.3 6.7c3.8 7.7 9.2 13 17.1 16.7l5.6 2.6 40.3.3c22.1.2 40.2-.1 40.3-.5.5-5.1 4.6-22 7.3-30 11.8-34.7 35.6-64.6 67.1-84.2 3.9-2.4 7.2-4.5 7.4-4.7 1.3-1.1-14.1-11.6-21.9-14.9-11.9-5-16.9-5.4-63.5-5.3-38.2 0-43.8.2-50.2 1.9zM545.5 351.5c-11.4 2.5-25.6 9.7-31.7 16.2l-2.7 2.8 7.2 4.4c9.5 5.9 14.6 9.8 24.3 18.7 22.8 20.7 39.7 49.4 47 79.9 1.7 6.9 2.7 12.2 2.8 14.8 0 1.7 2.2 1.8 40.6 1.5l40.5-.3 6.7-3.3c7.7-3.8 13-9.2 16.7-17.1l2.6-5.6V436c0-23.3-.3-28.5-1.8-33.8-6.7-23.7-23.8-41.5-47.4-49.3-6.6-2.2-8.1-2.3-52.8-2.5-35.2-.2-47.4 0-52 1.1zM251.7 385.6c-.1.1-2 .5-4.2.8-22.4 3.4-44.2 13.1-61.5 27.4-18.7 15.5-33.6 37.8-40.3 60.2-4.9 16.3-5.2 19-5.2 49.5 0 25.9.2 29.6 1.9 34.5 2.9 8.3 7.1 15.2 13 21.3 6.7 6.9 14.4 11.2 24.2 13.7 7.6 2 11.2 2 171.3 2 179.6 0 168.1.3 180.8-6.1 11-5.6 20.8-16.9 25.5-29.4 2-5.6 2.2-7.9 2.5-32.5.2-22-.1-28.3-1.6-37-3.2-18.4-9.1-33.2-19.6-49-22.8-34.4-60.6-54.9-102.7-55.9-9.6-.2-11.2 0-16.3 2.4-4.8 2.2-15.4 5.9-27 9.5-5 1.5-19.6 4-27.5 4.7-16.6 1.5-32.6.6-48.5-2.8-2.7-.6-6.1-1.3-7.5-1.5-4.4-.8-26.3-8.6-29.9-10.6-2.9-1.6-5.1-1.9-15.3-1.7-6.5.1-11.9.4-12.1.5z"/></svg>